<?xml version="1.0" encoding="UTF-8"?>
<svg xmlns="http://www.w3.org/2000/svg" xmlns:xlink="http://www.w3.org/1999/xlink" viewBox="0 0 1270.47 704.84">
  <defs>
    <style>
      .cls-1 {
        fill: url(#radial-gradient-9);
      }

      .cls-1, .cls-2, .cls-3, .cls-4, .cls-5, .cls-6, .cls-7, .cls-8, .cls-9, .cls-10, .cls-11 {
        mix-blend-mode: screen;
      }

      .cls-2 {
        fill: url(#radial-gradient-6);
      }

      .cls-12 {
        fill: #fff;
      }

      .cls-3 {
        fill: url(#radial-gradient-5);
      }

      .cls-13 {
        fill: none;
        stroke: #fff;
        stroke-miterlimit: 10;
      }

      .cls-4 {
        fill: url(#radial-gradient-10);
      }

      .cls-5 {
        fill: url(#radial-gradient);
      }

      .cls-14 {
        isolation: isolate;
      }

      .cls-6 {
        fill: url(#radial-gradient-3);
      }

      .cls-7 {
        fill: url(#radial-gradient-11);
      }

      .cls-8 {
        fill: url(#radial-gradient-4);
      }

      .cls-9 {
        fill: url(#radial-gradient-7);
      }

      .cls-10 {
        fill: url(#radial-gradient-2);
      }

      .cls-11 {
        fill: url(#radial-gradient-8);
      }
    </style>
    <radialGradient id="radial-gradient" cx="712.52" cy="516.88" fx="712.52" fy="516.88" r="30.47" gradientUnits="userSpaceOnUse">
      <stop offset=".15" stop-color="#fff"/>
      <stop offset=".28" stop-color="#c2c2c2"/>
      <stop offset=".43" stop-color="#878787"/>
      <stop offset=".56" stop-color="#575757"/>
      <stop offset=".69" stop-color="#313131"/>
      <stop offset=".81" stop-color="#161616"/>
      <stop offset=".92" stop-color="#050505"/>
      <stop offset="1" stop-color="#000"/>
    </radialGradient>
    <radialGradient id="radial-gradient-2" cx="801.09" cy="113.08" fx="801.09" fy="113.08" r="26.72" xlink:href="#radial-gradient"/>
    <radialGradient id="radial-gradient-3" cx="897.18" cy="264.99" fx="897.18" fy="264.99" r="26.72" xlink:href="#radial-gradient"/>
    <radialGradient id="radial-gradient-4" cx="1002.19" cy="587.33" fx="1002.19" fy="587.33" r="26.72" xlink:href="#radial-gradient"/>
    <radialGradient id="radial-gradient-5" cx="336.48" cy="196.69" fx="336.48" fy="196.69" r="26.72" xlink:href="#radial-gradient"/>
    <radialGradient id="radial-gradient-6" cx="886.48" cy="85.09" fx="886.48" fy="85.09" r="26.72" xlink:href="#radial-gradient"/>
    <radialGradient id="radial-gradient-7" cx="527.81" cy="619.5" fx="527.81" fy="619.5" r="26.72" xlink:href="#radial-gradient"/>
    <radialGradient id="radial-gradient-8" cx="433.9" cy="538.6" fx="433.9" fy="538.6" r="26.72" xlink:href="#radial-gradient"/>
    <radialGradient id="radial-gradient-9" cx="647.57" cy="365.18" fx="647.57" fy="365.18" r="36.15" xlink:href="#radial-gradient"/>
    <radialGradient id="radial-gradient-10" cx="219.26" cy="244.31" fx="219.26" fy="244.31" r="18.38" xlink:href="#radial-gradient"/>
    <radialGradient id="radial-gradient-11" cx="461.39" cy="218.16" fx="461.39" fy="218.16" r="18.38" xlink:href="#radial-gradient"/>
  </defs>
  <g class="cls-14">
    <g id="Bg2">
      <path class="cls-12" d="M336.48,209.81c0-4.37-8.74-13.12-13.12-13.12,4.37,0,13.12-8.74,13.12-13.12,0,4.37,8.74,13.12,13.12,13.12-4.37,0-13.12,8.74-13.12,13.12Z"/>
      <line class="cls-13" x1="230.02" y1="239.07" x2="318.77" y2="200.95"/>
      <line class="cls-13" x1="354.69" y1="198.24" x2="449.05" y2="214.99"/>
      <line class="cls-13" x1="812.06" y1="126.4" x2="886.48" y2="251.22"/>
      <line class="cls-13" x1="886.45" y1="102.21" x2="897.11" y2="247.77"/>
      <line class="cls-13" x1="662.54" y1="388.63" x2="706.76" y2="496.26"/>
      <line class="cls-13" x1="733.93" y1="518.65" x2="985.45" y2="583.3"/>
      <line class="cls-13" x1="902.05" y1="281.49" x2="995.42" y2="571.49"/>
      <line class="cls-13" x1="444.53" y1="552.12" x2="513.9" y2="609.35"/>
      <line class="cls-13" x1="541.82" y1="610.03" x2="691.12" y2="520.12"/>
      <line class="cls-13" x1="471.54" y1="226" x2="626.91" y2="345.92"/>
      <line class="cls-13" x1="673.09" y1="353.04" x2="881.23" y2="271.46"/>
      <line class="cls-13" x1="447.31" y1="527.81" x2="626.32" y2="383.8"/>
      <circle class="cls-12" cx="219.26" cy="244.31" r="5.23"/>
      <circle class="cls-12" cx="461.39" cy="218.16" r="5.23"/>
      <path class="cls-12" d="M647.57,385.54c0-6.79-13.57-20.36-20.36-20.36,6.79,0,20.36-13.57,20.36-20.36,0,6.79,13.57,20.36,20.36,20.36-6.79,0-20.36,13.57-20.36,20.36Z"/>
      <path class="cls-12" d="M712.52,532.3c0-5.14-10.28-15.42-15.42-15.42,5.14,0,15.42-10.28,15.42-15.42,0,5.14,10.28,15.42,15.42,15.42-5.14,0-15.42,10.28-15.42,15.42Z"/>
      <path class="cls-12" d="M527.81,631.9c0-4.13-8.27-12.4-12.4-12.4,4.13,0,12.4-8.27,12.4-12.4,0,4.13,8.27,12.4,12.4,12.4-4.13,0-12.4,8.27-12.4,12.4Z"/>
      <path class="cls-12" d="M433.9,551c0-4.13-8.27-12.4-12.4-12.4,4.13,0,12.4-8.27,12.4-12.4,0,4.13,8.27,12.4,12.4,12.4-4.13,0-12.4,8.27-12.4,12.4Z"/>
      <path class="cls-12" d="M897.18,277.39c0-4.13-8.27-12.4-12.4-12.4,4.13,0,12.4-8.27,12.4-12.4,0,4.13,8.27,12.4,12.4,12.4-4.13,0-12.4,8.27-12.4,12.4Z"/>
      <path class="cls-12" d="M1002.19,599.73c0-4.13-8.27-12.4-12.4-12.4,4.13,0,12.4-8.27,12.4-12.4,0,4.13,8.27,12.4,12.4,12.4-4.13,0-12.4,8.27-12.4,12.4Z"/>
      <path class="cls-12" d="M886.48,97.49c0-4.13-8.27-12.4-12.4-12.4,4.13,0,12.4-8.27,12.4-12.4,0,4.13,8.27,12.4,12.4,12.4-4.13,0-12.4,8.27-12.4,12.4Z"/>
      <path class="cls-12" d="M801.09,125.48c0-4.13-8.27-12.4-12.4-12.4,4.13,0,12.4-8.27,12.4-12.4,0,4.13,8.27,12.4,12.4,12.4-4.13,0-12.4,8.27-12.4,12.4Z"/>
      <circle class="cls-5" cx="712.52" cy="516.88" r="30.47"/>
      <circle class="cls-10" cx="801.09" cy="113.08" r="26.72"/>
      <circle class="cls-6" cx="897.18" cy="264.99" r="26.72"/>
      <circle class="cls-8" cx="1002.19" cy="587.33" r="26.72"/>
      <circle class="cls-3" cx="336.48" cy="196.69" r="26.72"/>
      <circle class="cls-2" cx="886.48" cy="85.09" r="26.72"/>
      <circle class="cls-9" cx="527.81" cy="619.5" r="26.72"/>
      <circle class="cls-11" cx="433.9" cy="538.6" r="26.72"/>
      <circle class="cls-1" cx="647.57" cy="365.18" r="36.15"/>
      <circle class="cls-4" cx="219.26" cy="244.31" r="18.38"/>
      <circle class="cls-7" cx="461.39" cy="218.16" r="18.38"/>
    </g>
  </g>
</svg>